<svg xmlns="http://www.w3.org/2000/svg" viewBox="0 0 200.75 426.05"><defs><style>.cls-1{fill:#f7931e;}.cls-2{fill:#fff;}</style></defs><title>fire-1</title><g id="Layer_2" data-name="Layer 2"><g id="Layer_1-2" data-name="Layer 1"><path class="cls-1" d="M27.47,224a35.29,35.29,0,0,1,2,18c-2.7,16.27-16.95,21.16-25,36-5.87,10.84-4.91,21.23-3,42,1.41,15.19,4.4,47.67,29,75a107.19,107.19,0,0,0,26,21c9.87,4.32,38.65,15.36,74,7a116.4,116.4,0,0,0,50-26,128,128,0,0,0,16-36c15-56.08-13.83-105.1-22-118a183.91,183.91,0,0,1-42-81q-2.47-16.59-6-34a662.38,662.38,0,0,0-40-128c7.94,26.55,14.76,64.55,7,108a218.23,218.23,0,0,1-6,25,148,148,0,0,1-26-65,485.44,485.44,0,0,1-9,72A485.58,485.58,0,0,1,27.47,224Z"/><path class="cls-2" d="M142,368.5c14.15-20.14,5.13-45.12,3-51-8.27-22.91-22.17-22.56-33-45-14.15-29.35-4.21-58.66-7-59-3.44-.42-.37,46.52-26,95-8,15.17-15.29,23.78-14,38,1.51,16.47,14.26,37.79,36,41C118.45,390.08,134,379.81,142,368.5Z"/></g></g></svg>